<svg width="453" height="453" viewBox="0 0 453 453" fill="none" xmlns="http://www.w3.org/2000/svg">
<path d="M453 219.903C453 191.025 447.312 162.43 436.261 135.75C425.21 109.07 409.012 84.8279 388.592 64.4081C368.172 43.9882 343.93 27.7903 317.25 16.7391C290.57 5.68795 261.975 -1.2623e-06 233.097 0L233.097 219.903H453Z" fill="#996312"/>
<path d="M-1.92245e-05 233.097C-1.66999e-05 261.975 5.68794 290.57 16.7391 317.25C27.7903 343.93 43.9882 368.172 64.4081 388.592C84.8279 409.012 109.07 425.21 135.75 436.261C162.43 447.312 191.025 453 219.903 453L219.903 233.097L-1.92245e-05 233.097Z" fill="#996312"/>
<path d="M219.903 0C191.025 -3.44367e-07 162.43 5.68796 135.75 16.7391C109.07 27.7903 84.8279 43.9882 64.4081 64.4081C43.9882 84.828 27.7903 109.07 16.7391 135.75C5.68795 162.43 -4.36046e-06 191.025 0 219.903L219.903 219.903L219.903 0Z" fill="#003A91"/>
<path d="M233.097 453C261.975 453 290.57 447.312 317.25 436.261C343.93 425.21 368.172 409.012 388.592 388.592C409.012 368.172 425.21 343.93 436.261 317.25C447.312 290.57 453 261.975 453 233.097L233.097 233.097L233.097 453Z" fill="#003A91"/>
<path d="M316.599 160.336C311.761 160.336 307.471 159.465 303.73 157.723C300.053 155.917 296.925 153.466 294.344 150.37C291.764 147.209 289.797 143.5 288.442 139.243C287.152 134.985 286.507 130.406 286.507 125.503C286.507 119.827 287.281 114.795 288.829 110.409C290.442 106.023 292.571 102.378 295.215 99.4755C297.86 96.5083 300.924 94.2829 304.407 92.7992C307.955 91.2511 311.632 90.4771 315.438 90.4771C317.502 90.4771 319.308 90.7028 320.856 91.1544C322.469 91.5414 323.855 92.0574 325.016 92.7025C326.178 93.3475 327.145 94.0893 327.919 94.9279C328.693 95.702 329.274 96.476 329.661 97.2501H330.241V91.6382H341.465V113.118H330.241V108.764C330.241 105.474 329.145 102.83 326.952 100.83C324.823 98.8305 321.694 97.8306 317.566 97.8306C313.244 97.8306 309.858 99.1852 307.407 101.894C304.955 104.604 303.73 108.861 303.73 114.666V134.308C303.73 137.34 304.117 139.92 304.891 142.049C305.665 144.177 306.729 145.951 308.084 147.37C309.503 148.789 311.148 149.822 313.019 150.467C314.954 151.112 317.05 151.434 319.308 151.434C323.436 151.434 326.919 150.37 329.758 148.241C332.66 146.048 334.853 143.113 336.337 139.436L341.852 142.629C341.014 145.08 339.82 147.403 338.272 149.596C336.724 151.724 334.853 153.595 332.66 155.208C330.532 156.82 328.113 158.078 325.404 158.981C322.694 159.884 319.759 160.336 316.599 160.336Z" fill="white"/>
<path d="M87.5302 350.701H94.3032V295.937H87.5302V289.551H111.913L127.007 322.061H127.394L141.521 289.551H166.291V295.937H159.518V350.701H166.291V357.087H137.07V350.701H143.843V301.452H143.262L137.65 315.578L122.847 346.734L108.139 315.578L102.431 301.452H101.85V350.701H108.623V357.087H87.5302V350.701Z" fill="white"/>
<path d="M285.443 350.701H292.216V295.937H285.443V289.551H322.694C329.79 289.551 335.079 291.131 338.563 294.292C342.11 297.388 343.884 301.968 343.884 308.031C343.884 314.159 341.981 318.965 338.175 322.448C334.37 325.867 328.919 327.576 321.823 327.576H307.89V350.701H317.082V357.087H285.443V350.701ZM307.89 320.61H317.469C320.759 320.61 323.307 319.836 325.113 318.288C326.984 316.675 327.919 314.256 327.919 311.031V306.096C327.919 302.871 326.984 300.484 325.113 298.936C323.307 297.324 320.759 296.517 317.469 296.517H307.89V320.61Z" fill="white"/>
<path d="M127.623 160.336C125.688 160.336 123.914 160.11 122.301 159.659C120.753 159.272 119.366 158.755 118.141 158.11C116.98 157.401 115.98 156.659 115.141 155.885C114.367 155.046 113.787 154.272 113.4 153.563H113.013V159.175H101.789V139.436H113.013V143.597C113.013 147.08 114.238 149.564 116.689 151.047C119.141 152.466 122.495 153.176 126.752 153.176C131.203 153.176 134.493 152.273 136.621 150.467C138.814 148.66 139.911 146.306 139.911 143.403C139.911 141.984 139.718 140.759 139.331 139.727C139.008 138.694 138.427 137.824 137.589 137.114C136.75 136.34 135.621 135.695 134.202 135.179C132.783 134.598 131.009 134.082 128.881 133.631L124.527 132.663C121.237 132.018 118.205 131.147 115.431 130.051C112.722 128.89 110.4 127.406 108.465 125.6C106.53 123.794 105.014 121.633 103.917 119.117C102.885 116.602 102.369 113.634 102.369 110.216C102.369 107.313 102.885 104.668 103.917 102.281C104.949 99.8303 106.433 97.7339 108.368 95.9922C110.303 94.2506 112.69 92.896 115.528 91.9284C118.431 90.9609 121.721 90.4771 125.397 90.4771C127.397 90.4771 129.171 90.7028 130.719 91.1544C132.332 91.5414 133.719 92.0574 134.88 92.7025C136.105 93.3475 137.105 94.0893 137.879 94.9279C138.653 95.702 139.234 96.4438 139.621 97.1533H140.008V91.6382H151.232V111.377H140.008V107.119C140.008 103.701 138.814 101.282 136.428 99.8625C134.041 98.3789 130.945 97.6371 127.139 97.6371C122.753 97.6371 119.528 98.5724 117.463 100.443C115.464 102.249 114.464 104.442 114.464 107.023C114.464 108.506 114.69 109.764 115.141 110.796C115.593 111.828 116.302 112.731 117.27 113.505C118.302 114.279 119.624 114.957 121.237 115.537C122.85 116.053 124.817 116.569 127.139 117.085L131.203 117.859C134.557 118.569 137.557 119.504 140.201 120.665C142.911 121.762 145.168 123.181 146.974 124.923C148.845 126.664 150.264 128.728 151.232 131.115C152.199 133.437 152.683 136.147 152.683 139.243C152.683 142.274 152.102 145.08 150.941 147.661C149.78 150.241 148.103 152.466 145.91 154.337C143.781 156.208 141.169 157.691 138.073 158.788C134.976 159.82 131.493 160.336 127.623 160.336Z" fill="white"/>
</svg>
